<?xml version="1.0" standalone="no"?>
<!DOCTYPE svg PUBLIC "-//W3C//DTD SVG 20010904//EN"
 "http://www.w3.org/TR/2001/REC-SVG-20010904/DTD/svg10.dtd">
<svg version="1.0" xmlns="http://www.w3.org/2000/svg"
 width="28.000000pt" height="28.000000pt" viewBox="0 0 28.000000 28.000000"
 preserveAspectRatio="xMidYMid meet">

<g transform="translate(0.000000,28.000000) scale(0.100000,-0.100000)"
fill="#000000" stroke="none">
<path d="M124 212 c-19 -12 -64 -98 -64 -120 0 -23 37 -39 65 -28 25 9 18 36
-11 36 l-25 0 22 40 c27 48 39 51 39 10 0 -23 4 -30 20 -30 17 0 18 -3 8 -25
-13 -30 -7 -39 21 -30 28 9 27 39 -6 94 -24 42 -40 61 -53 61 -3 0 -10 -4 -16
-8z"/>
</g>
</svg>
